<?xml version="1.0" standalone="no"?> <!DOCTYPE svg PUBLIC "-//W3C//DTD SVG 20010904//EN" "http://www.w3.org/TR/2001/REC-SVG-20010904/DTD/svg10.dtd"> <svg version="1.0" xmlns="http://www.w3.org/2000/svg" width="900.000000pt" height="900.000000pt" viewBox="0 0 900.000000 900.000000" preserveAspectRatio="xMidYMid meet"> <g transform="translate(0.000000,900.000000) scale(0.100000,-0.100000)" fill="#ffffff" stroke="none"> <path d="M4430 8917 c0 -13 9 -32 20 -42 11 -10 22 -26 25 -36 4 -11 11 -19 17 -19 l10 0 -7 48 c-8 54 -20 72 -46 72 l-19 0 0 -23z"/> <path d="M8256 8793 c-11 -11 -6 -38 12 -61 l18 -24 12 15 12 15 -9 24 c-10 25 -34 42 -45 31z"/> <path d="M7358 8775 c-8 -8 3 -96 14 -117 15 -30 28 -20 28 21 0 62 -23 115 -42 96z"/> <path d="M1025 8590 l-16 -30 -18 0 -19 0 5 -21 c3 -11 1 -30 -5 -42 -6 -12 -18 -46 -27 -76 l-16 -54 9 -9 c19 -19 30 2 42 73 l12 70 34 34 34 34 0 26 c0 34 -16 32 -35 -5z"/> <path d="M7481 8589 c-6 -18 -11 -40 -11 -50 l0 -19 19 0 19 0 6 34 c12 62 -14 89 -33 35z"/> <path d="M6388 8547 c-3 -6 -2 -37 1 -67 l6 -55 17 -3 17 -3 7 25 6 26 -16 25 c-9 13 -16 31 -16 39 0 19 -17 29 -22 13z"/> <path d="M335 8346 l-20 -15 23 -23 23 -23 18 24 18 24 17 -6 17 -7 -3 16 -3 17 -35 4 -36 3 -19 -14z"/> <path d="M8023 8334 c-24 -26 -31 -74 -12 -74 12 0 41 66 37 86 l-3 13 -22 -25z"/> <path d="M8787 8193 c-9 -14 -11 -92 -4 -100 13 -12 27 19 27 59 0 35 -13 57 -23 41z"/> <path d="M7976 8175 c-8 -23 -7 -47 3 -64 l9 -15 16 13 c21 18 20 44 -3 65 l-19 17 -6 -16z"/> <path d="M1466 8114 c-10 -27 -7 -61 8 -73 l14 -12 6 9 c7 11 -4 81 -14 87 -4 3 -11 -2 -14 -11z"/> <path d="M3798 8093 l-3 -38 -50 0 -50 0 -3 -19 -4 -19 28 7 c16 4 33 8 39 9 5 1 12 -11 13 -28 2 -16 10 -37 17 -45 l13 -15 4 -95 c3 -52 1 -107 -4 -122 l-10 -27 -20 -3 -21 -3 -13 -37 -13 -38 17 0 c9 0 34 19 56 41 l39 41 -6 48 c-3 27 -1 64 4 84 l10 36 -12 58 c-13 62 -14 106 -4 165 l7 37 -15 0 -16 0 -3 -37z"/> <path d="M7100 8109 c-6 -11 -22 -24 -36 -29 l-24 -10 0 -35 0 -36 -15 -5 c-8 -4 -15 -12 -15 -19 0 -13 65 -115 79 -125 4 -3 22 -27 41 -55 18 -27 38 -54 44 -60 6 -5 22 -23 35 -40 31 -41 119 -135 126 -135 3 0 27 -21 54 -47 62 -62 113 -102 127 -103 7 0 14 -7 18 -15 3 -8 12 -15 20 -15 7 0 16 -9 19 -21 l6 -21 23 4 23 3 3 18 4 19 -20 14 c-11 8 -26 31 -33 52 -10 31 -47 109 -78 162 -5 8 -18 35 -30 60 -30 64 -69 131 -86 150 -8 9 -15 23 -15 32 0 8 -14 34 -30 57 -17 23 -40 60 -51 81 -12 22 -26 40 -32 40 -6 0 -17 7 -26 15 -37 34 -87 72 -103 78 l-18 6 -10 -20z"/> <path d="M1270 8051 c-5 -11 -10 -27 -10 -35 l0 -16 20 0 c22 0 44 34 36 56 -8 20 -34 17 -46 -5z"/> <path d="M6850 7995 c0 -8 9 -20 20 -27 20 -13 27 -43 11 -52 -4 -3 -21 8 -37 24 -40 41 -43 38 -41 -30 l1 -59 133 -138 c73 -76 133 -141 133 -145 0 -5 95 -87 211 -181 19 -15 45 -30 59 -34 14 -3 36 -14 49 -25 55 -43 84 -14 45 45 -36 56 -227 242 -276 269 -21 12 -38 26 -38 30 0 5 -12 20 -28 33 l-27 23 -13 46 c-6 25 -12 55 -12 67 l0 20 -40 39 c-23 22 -49 40 -58 40 -9 0 -27 16 -40 35 -23 36 -52 47 -52 20z"/> <path d="M6192 7946 c-12 -27 -22 -62 -22 -78 l0 -29 18 3 17 3 3 23 c2 12 10 22 17 22 24 0 26 17 7 62 l-19 43 -21 -49z"/> <path d="M5887 7822 c-18 -20 -22 -59 -8 -81 l9 -14 5 19 c9 32 18 94 14 94 -2 0 -11 -8 -20 -18z"/> <path d="M8845 7815 c-22 -8 -50 -15 -62 -15 -24 0 -126 -32 -180 -56 -17 -8 -34 -14 -38 -14 -4 0 -35 -13 -69 -29 -33 -16 -79 -36 -101 -46 -22 -9 -49 -20 -60 -25 -47 -20 -84 -28 -109 -23 l-27 6 -37 -19 c-20 -11 -40 -24 -44 -30 -4 -6 -26 -19 -50 -29 -24 -9 -58 -24 -75 -32 -18 -7 -47 -20 -65 -27 -46 -19 -144 -69 -198 -100 -25 -14 -52 -29 -60 -33 -8 -3 -33 -21 -55 -39 -22 -18 -69 -57 -105 -87 -36 -29 -71 -57 -78 -61 l-13 -8 -20 18 -19 17 -31 -29 c-64 -59 -71 -105 -27 -162 l32 -42 23 0 c12 0 25 -5 28 -10 l6 -10 50 27 c54 29 73 53 65 81 l-6 17 25 28 c14 15 30 27 35 27 13 0 92 55 114 79 11 12 24 21 31 21 6 0 26 16 45 35 19 19 42 35 51 35 10 0 31 11 47 25 17 14 38 25 47 25 10 0 41 15 69 33 28 19 70 42 93 53 l42 19 1 19 0 18 24 -6 23 -6 34 17 c19 9 48 31 64 49 l30 32 41 11 c22 6 68 24 102 41 34 16 69 30 77 30 9 0 23 4 33 10 19 11 130 50 247 86 44 14 94 31 110 38 17 7 45 17 63 20 32 8 43 21 20 25 -7 1 -33 4 -58 6 l-45 5 -40 -15z"/> <path d="M5614 7735 c4 -16 16 -39 25 -50 10 -11 23 -29 29 -40 l11 -20 1 23 c0 20 -31 72 -63 107 l-10 10 7 -30z"/> <path d="M3616 7653 c-8 -20 1 -30 35 -38 l27 -7 6 11 c4 6 1 19 -6 31 l-13 20 -21 0 -22 0 -6 -17z"/> <path d="M3261 7285 l-12 -30 8 -29 c5 -16 13 -31 20 -33 l11 -4 7 29 6 30 -14 33 -15 34 -11 -30z"/> <path d="M3560 7146 c0 -13 6 -29 14 -35 8 -6 16 -24 19 -39 3 -15 9 -38 13 -52 l7 -25 -16 13 c-44 36 -49 -25 -7 -78 17 -21 30 -41 30 -46 0 -4 8 -16 17 -26 9 -10 18 -26 19 -36 1 -9 5 -33 9 -52 l6 -35 -12 20 c-35 57 -78 41 -47 -18 23 -45 27 -56 43 -116 l15 -61 -6 -97 -7 -98 -33 -69 c-38 -76 -39 -85 -22 -133 l12 -33 -13 -37 c-8 -21 -33 -63 -57 -92 -62 -80 -38 -97 51 -36 27 19 51 33 52 31 11 -10 4 -59 -14 -96 -34 -71 -53 -137 -53 -182 l0 -40 -13 11 c-15 11 -97 173 -97 189 0 5 -6 15 -14 21 -7 6 -19 33 -27 59 -12 47 -75 172 -90 182 -4 3 -13 17 -19 30 -15 37 -61 112 -77 128 -7 7 -13 18 -13 23 0 25 -250 331 -296 364 -11 7 -33 32 -48 54 -16 23 -34 41 -40 41 -7 0 -27 20 -44 45 -18 25 -40 49 -50 52 -9 4 -21 12 -25 20 -4 7 -16 13 -26 13 -10 0 -26 11 -35 25 -9 14 -25 25 -35 25 -11 0 -38 18 -61 40 -23 22 -51 45 -61 51 l-19 10 -6 -16 c-4 -9 0 -23 7 -33 8 -9 23 -33 33 -52 10 -19 26 -44 35 -55 59 -72 70 -99 47 -108 l-14 -6 8 -33 c18 -70 31 -107 40 -113 6 -4 10 -15 10 -26 0 -10 6 -19 13 -19 14 0 52 -78 62 -126 l6 -31 -15 -6 -15 -6 1 -53 2 -53 13 -13 c17 -18 17 -78 -2 -138 -16 -51 -64 -336 -70 -414 -2 -25 -8 -58 -14 -73 -6 -16 -11 -43 -11 -61 0 -17 -4 -36 -9 -41 -5 -6 -14 -55 -20 -110 l-12 -100 -22 -17 c-33 -26 -54 -22 -117 25 -91 67 -183 120 -224 131 -15 4 -35 14 -43 21 -8 8 -27 15 -42 15 -16 0 -34 7 -41 15 l-12 15 -36 0 -35 0 -31 24 c-17 13 -56 35 -86 49 -30 14 -64 34 -75 44 -11 10 -28 22 -37 25 -9 4 -41 39 -70 77 l-52 71 -17 0 c-9 0 -24 9 -33 19 l-18 20 7 20 6 21 -30 31 c-17 17 -31 38 -31 46 0 9 -6 24 -14 32 -7 9 -21 39 -31 66 -10 28 -24 55 -30 60 l-12 10 8 97 c4 54 13 106 18 117 15 26 14 67 -1 91 l-13 20 18 30 18 30 -6 20 c-9 28 -23 25 -38 -7 -6 -16 -14 -30 -17 -33 -3 -3 -16 -39 -29 -80 -12 -41 -37 -104 -54 -140 l-31 -65 -6 -75 -6 -75 -17 -34 c-9 -19 -17 -54 -17 -78 0 -24 -6 -69 -14 -101 -13 -52 -35 -177 -52 -292 -6 -40 -12 -243 -13 -415 -1 -86 17 -304 34 -410 20 -126 32 -265 23 -265 -4 0 -13 8 -20 18 -7 11 -23 24 -35 31 l-23 12 0 24 0 25 15 0 15 0 0 33 c0 37 -8 51 -32 60 l-18 6 0 26 c0 14 -4 25 -10 25 -5 0 -10 9 -10 20 0 11 5 20 10 20 16 0 12 37 -6 54 l-15 16 6 20 6 20 -17 -7 -17 -6 6 56 c7 55 2 87 -13 87 -14 0 -28 -54 -34 -129 l-5 -74 19 -38 20 -38 -3 -128 -3 -127 18 -18 c10 -10 18 -30 18 -44 0 -14 4 -33 9 -42 5 -10 14 -49 19 -88 11 -78 60 -215 114 -319 41 -78 297 -361 342 -378 9 -4 16 -10 16 -15 0 -12 72 -61 124 -84 21 -10 55 -31 76 -48 21 -16 43 -30 50 -30 7 0 24 -8 38 -19 41 -28 132 -71 150 -71 9 0 40 -11 67 -25 28 -13 64 -25 81 -25 17 0 53 -10 79 -21 l48 -21 12 16 c7 9 20 16 29 16 l18 0 -4 13 c-3 6 -12 13 -21 15 l-17 3 0 -15 0 -16 -24 0 c-13 0 -29 7 -36 15 l-12 15 -22 -6 -22 -5 -13 15 c-8 9 -21 16 -30 16 -10 0 -28 11 -41 25 -13 14 -29 25 -35 25 -7 0 -28 17 -47 38 -20 20 -51 48 -69 62 -47 36 -139 128 -139 140 0 5 -9 10 -19 10 -23 0 -211 158 -211 177 0 16 -22 17 -39 1 l-13 -13 7 23 7 24 -21 -7 -21 -6 0 15 c0 8 -6 19 -14 23 -20 11 -110 194 -139 283 -33 99 -59 237 -63 330 -2 41 -8 95 -14 120 -6 25 -14 96 -19 159 l-9 114 9 94 c5 52 11 98 13 102 3 4 8 63 11 131 4 68 15 185 24 259 l17 135 11 3 c5 2 16 -9 22 -25 l12 -29 -6 -26 -7 -25 23 -4 24 -3 6 -35 c7 -37 70 -163 97 -193 l17 -19 -16 -11 -16 -12 1 -66 1 -67 17 -19 c10 -11 18 -28 18 -39 0 -10 9 -30 20 -44 l20 -25 0 -42 0 -43 10 0 10 0 0 -54 c0 -81 20 -117 34 -61 9 37 26 31 26 -9 0 -19 6 -38 12 -42 18 -11 63 -10 63 2 -1 14 -29 68 -40 77 l-10 7 19 15 c26 20 32 19 56 -5 l20 -20 0 -30 0 -30 30 0 30 0 17 -27 c9 -16 18 -30 20 -32 2 -2 12 4 23 14 l20 19 13 -13 12 -12 -23 -5 c-25 -7 -29 -29 -6 -38 25 -10 34 -7 34 9 0 8 6 16 13 16 25 3 52 -3 65 -14 l14 -11 6 11 c4 5 26 13 48 16 l42 7 5 -21 c3 -11 11 -19 19 -18 20 3 61 -16 82 -40 24 -26 36 -27 36 -1 l0 20 -14 0 c-8 0 -20 14 -28 30 -7 17 -19 30 -25 30 -7 0 -13 7 -13 15 0 8 3 15 7 15 14 0 133 -132 133 -149 0 -9 12 -26 28 -38 15 -11 36 -38 47 -59 11 -21 41 -66 66 -99 26 -33 66 -96 89 -140 24 -44 55 -98 69 -120 41 -64 70 -128 71 -153 0 -12 6 -32 13 -44 20 -35 99 -151 122 -180 l22 -26 7 -50 c10 -78 41 -157 91 -232 l45 -68 0 -31 c0 -17 5 -31 10 -31 6 0 10 -9 10 -21 l0 -21 -24 6 -25 6 -6 -10 c-4 -6 -23 -17 -42 -25 l-36 -15 -17 15 -17 15 -55 0 -55 0 -84 42 c-46 23 -85 45 -87 48 -1 3 -18 4 -38 2 l-35 -4 -6 21 -5 21 -24 0 c-13 0 -27 7 -31 15 -10 17 -109 85 -124 85 -5 0 -9 7 -9 15 l0 15 -24 -6 -25 -6 6 21 5 21 -14 0 c-8 0 -23 -7 -34 -15 l-19 -15 20 -15 c11 -9 29 -24 40 -33 23 -20 140 -92 149 -92 4 0 25 -12 49 -27 40 -25 150 -82 192 -99 l20 -8 -44 -4 -43 -3 -84 40 c-46 23 -94 41 -106 41 l-23 -1 -17 -23 -17 -23 25 -11 c13 -7 24 -16 24 -21 0 -5 14 -11 32 -13 17 -2 33 -8 35 -13 l3 -11 -192 4 -192 4 -70 -12 c-39 -7 -92 -21 -118 -32 l-48 -20 -22 5 -22 6 -21 -18 c-11 -9 -40 -26 -65 -36 -25 -10 -52 -25 -61 -32 -22 -18 -39 -16 -39 5 0 19 -66 123 -104 165 -14 16 -26 32 -26 36 0 19 -220 191 -244 191 -8 0 -17 4 -20 9 -9 14 -230 90 -386 131 l-45 12 -171 2 -172 2 -35 27 c-41 31 -62 34 -75 11 l-9 -17 -24 17 c-30 20 -49 21 -49 0 l0 -16 -12 4 c-7 3 -14 20 -16 39 -4 37 -36 79 -61 79 -9 0 -25 7 -35 15 -11 8 -27 15 -37 15 -9 0 -36 9 -60 20 -24 11 -50 20 -56 20 l-13 0 0 -33 0 -33 78 -33 c43 -17 92 -40 110 -51 l32 -20 0 -20 c0 -11 9 -25 20 -32 11 -7 20 -17 20 -23 0 -6 12 -22 27 -37 16 -14 37 -38 48 -52 33 -42 71 -24 46 22 l-11 20 15 12 14 11 19 -10 c11 -6 22 -16 24 -23 l5 -13 36 19 36 20 68 -11 c61 -9 94 -18 158 -44 11 -4 47 -16 80 -25 33 -9 99 -30 147 -45 47 -16 95 -29 106 -29 11 0 27 -7 36 -15 8 -8 23 -15 33 -15 58 0 265 -148 286 -205 4 -8 11 -15 17 -15 5 0 10 -6 10 -13 0 -8 9 -22 20 -32 21 -19 27 -45 10 -45 -10 0 -120 111 -120 121 0 4 -23 21 -50 39 -28 18 -50 36 -50 40 0 13 -71 51 -82 44 -5 -4 -20 -2 -31 3 -44 20 -97 34 -107 28 l-10 -6 46 -40 c25 -21 48 -39 52 -39 4 0 31 -23 60 -50 29 -28 56 -50 61 -50 5 0 26 -26 47 -57 22 -32 42 -60 45 -63 4 -3 10 -16 14 -30 4 -14 20 -41 36 -61 l28 -36 -29 -21 c-16 -12 -37 -22 -46 -22 -9 0 -18 -9 -21 -20 l-6 -21 -18 17 -19 17 -6 -17 -7 -17 19 -14 19 -15 -105 -101 -105 -102 -75 -45 c-41 -25 -91 -58 -110 -74 -19 -15 -42 -28 -52 -28 -9 0 -23 -6 -30 -13 -7 -7 -29 -18 -48 -24 l-35 -11 38 -1 37 -1 0 10 c0 6 11 10 26 10 14 0 49 14 79 30 30 17 61 30 69 30 9 0 16 4 16 9 0 5 9 11 20 14 52 14 -19 -46 -97 -82 -11 -5 -24 -15 -28 -20 -3 -6 -18 -11 -33 -11 -15 0 -36 -7 -46 -15 l-20 -15 -62 0 c-35 0 -66 4 -69 10 -3 6 -21 10 -39 10 l-33 0 -23 -25 -24 -26 10 -17 c6 -9 27 -20 45 -23 19 -3 40 -9 47 -13 7 -4 42 -11 80 -16 37 -5 94 -15 127 -23 l60 -14 0 -14 0 -14 28 3 c15 1 39 3 54 5 36 3 40 -19 6 -31 l-28 -9 40 -7 c22 -4 47 -11 55 -17 8 -5 22 -12 30 -15 8 -3 24 -10 35 -14 11 -5 40 -14 65 -20 25 -6 54 -15 65 -20 11 -5 54 -18 95 -30 41 -12 95 -27 120 -35 107 -31 129 -36 195 -45 196 -30 404 -33 520 -8 74 15 253 67 305 88 25 10 57 21 71 24 14 3 37 17 51 31 14 14 46 34 71 45 25 11 49 25 52 30 3 6 15 10 26 10 22 0 79 38 79 53 0 10 47 57 57 57 3 0 3 -7 0 -15 l-6 -14 34 -52 c19 -28 35 -58 35 -68 0 -18 61 -71 82 -71 16 0 98 -75 98 -90 0 -5 5 -10 10 -10 6 0 10 11 10 24 l0 25 -20 6 -20 6 0 19 c0 10 -7 26 -15 34 l-16 16 7 35 6 35 -11 0 c-6 0 -11 -9 -11 -20 0 -11 -4 -20 -10 -20 -5 0 -10 16 -10 35 l0 34 -21 12 -21 11 11 11 c17 17 13 34 -10 40 l-20 6 16 25 c10 14 21 26 25 26 5 0 22 28 39 61 l31 61 -32 -6 c-39 -8 -44 -12 -30 -29 l12 -14 -13 -16 c-36 -46 -127 -100 -127 -74 1 20 26 47 44 47 9 0 19 7 22 15 4 8 12 15 20 15 8 0 14 7 14 15 0 27 -62 7 -95 -31 -10 -12 -116 -77 -165 -102 -42 -22 -71 -39 -83 -51 -6 -6 -23 -11 -38 -11 -15 0 -31 -5 -34 -10 -3 -6 -19 -10 -34 -10 -16 0 -45 -7 -64 -15 -43 -18 -108 -20 -124 -4 l-11 11 -23 -7 -22 -7 16 -10 c10 -5 17 -13 17 -18 0 -13 -47 -13 -55 0 -3 6 -18 10 -32 10 l-25 0 -5 -20 -5 -20 -42 0 c-22 0 -50 -7 -60 -15 -11 -8 -29 -15 -40 -15 -12 0 -39 -7 -61 -15 -22 -8 -52 -14 -67 -15 l-28 0 0 20 0 20 -14 0 c-7 0 -19 -6 -25 -14 l-11 -13 -142 -1 -141 -1 -86 33 c-47 19 -95 37 -106 41 l-20 8 35 9 c19 6 47 16 62 24 l27 15 58 -15 c32 -8 78 -16 102 -18 l45 -2 4 12 4 12 34 0 35 0 -6 10 c-3 5 -19 10 -34 10 -16 0 -33 6 -40 13 l-11 13 12 12 12 12 -12 12 -13 13 -5 -22 -6 -22 -14 6 c-21 8 -17 31 8 44 31 17 87 22 102 10 l12 -10 49 24 c28 13 58 25 67 25 9 0 19 4 22 9 3 4 41 25 83 45 183 87 210 102 249 133 23 18 47 33 54 33 7 0 39 18 71 40 32 22 62 40 66 40 3 0 14 6 22 14 15 12 64 41 161 91 76 40 89 45 114 45 l27 0 6 15 c8 23 3 24 -50 14 l-48 -9 -37 16 -37 15 -50 -12 c-27 -6 -62 -18 -77 -25 -15 -8 -39 -14 -54 -14 -38 0 -143 -35 -227 -76 -16 -8 -34 -14 -41 -14 -22 0 -236 -117 -236 -130 0 -4 -44 -37 -97 -73 l-98 -65 -65 -18 c-36 -9 -76 -23 -90 -30 -14 -7 -77 -27 -140 -46 l-115 -33 -133 1 -134 2 -11 11 c-14 14 -42 14 -66 0 l-18 -12 -26 7 c-45 11 -32 45 23 61 72 21 220 164 286 275 82 139 295 319 464 393 19 8 46 20 60 26 47 20 148 50 212 61 35 6 87 15 117 20 30 6 75 10 100 10 25 0 61 4 80 10 49 14 199 14 321 0 195 -21 374 -21 471 3 9 2 54 -66 83 -128 8 -16 28 -48 46 -70 61 -77 71 -90 90 -123 11 -18 28 -36 38 -39 17 -7 61 -43 90 -76 9 -9 26 -17 37 -17 11 0 31 -9 44 -19 l25 -19 -17 -26 c-9 -14 -17 -31 -17 -39 0 -7 -13 -26 -30 -42 -16 -16 -30 -36 -30 -45 0 -8 -16 -40 -36 -70 -42 -63 -79 -142 -89 -191 -4 -19 -11 -36 -15 -39 -11 -8 -36 -103 -32 -125 l3 -21 29 -11 c54 -20 21 -62 -37 -47 l-20 6 -7 -29 c-4 -15 -15 -36 -23 -45 l-16 -17 6 -23 6 -22 -14 -16 c-8 -9 -19 -36 -24 -61 -10 -48 -29 -106 -42 -129 -5 -8 -11 -19 -13 -25 -1 -5 -9 -26 -15 -45 -7 -19 -17 -54 -23 -77 -5 -23 -16 -47 -24 -54 l-14 -11 0 -43 c0 -62 -36 -159 -77 -206 -8 -9 -14 -27 -15 -40 -1 -100 -34 -298 -53 -330 -12 -18 -45 -192 -44 -224 1 -16 -3 -56 -10 -87 l-12 -57 5 -198 c2 -109 1 -217 -3 -240 l-8 -43 173 0 173 0 11 58 c6 31 16 73 21 92 l9 34 -9 9 c-5 5 -6 39 -4 75 l5 67 20 22 20 22 -10 93 c-6 51 -9 129 -5 173 l6 80 13 15 c7 8 15 27 19 42 l7 26 -11 20 -11 20 14 11 13 11 7 73 c10 120 47 269 92 375 8 18 14 52 14 75 1 23 14 92 31 152 16 61 37 139 45 174 8 35 19 72 24 82 6 10 10 27 10 38 0 10 6 32 14 48 8 15 21 44 29 63 15 34 138 286 166 338 8 15 18 29 23 30 4 2 8 8 8 13 0 23 68 112 103 135 l38 25 29 -32 30 -31 67 -4 c38 -3 97 -5 133 -6 36 0 70 -5 76 -9 6 -5 44 -8 85 -7 l74 3 1 -12 c1 -7 2 -16 3 -20 0 -5 16 9 34 29 l33 37 77 -4 77 -4 0 10 c0 5 -7 9 -16 9 -8 0 -12 4 -9 10 l6 9 46 -6 45 -6 -7 23 -7 23 46 -6 46 -7 0 10 c0 6 -4 10 -10 10 -5 0 -10 5 -10 10 l0 11 34 -6 33 -7 6 22 6 21 48 -6 48 -6 -17 14 c-23 18 -23 27 0 27 11 0 37 13 58 28 22 16 45 31 51 33 11 4 77 57 129 105 27 24 104 127 126 169 85 160 95 182 102 240 l7 50 -10 -15 c-6 -8 -11 -25 -11 -38 0 -12 -6 -25 -14 -28 -8 -3 -19 -18 -25 -32 -6 -15 -15 -34 -20 -42 -18 -28 -41 -83 -41 -97 0 -7 -7 -16 -15 -19 -8 -4 -15 -13 -15 -20 0 -8 -7 -17 -15 -20 -8 -4 -15 -11 -15 -16 0 -17 -147 -158 -164 -158 -9 0 -16 5 -16 10 0 6 4 10 8 10 12 0 112 98 112 110 0 5 4 10 8 10 21 0 112 149 112 183 0 10 7 31 15 47 l15 28 6 126 c7 119 19 164 26 94 l3 -33 29 -14 29 -13 86 -1 86 0 70 17 c39 9 79 21 90 26 11 4 47 19 80 31 72 28 257 122 340 173 33 20 84 43 112 52 29 8 55 20 58 25 4 5 12 9 19 9 7 0 46 18 87 41 75 41 134 66 179 76 14 3 32 11 40 18 8 7 26 16 39 20 l23 7 -11 11 -11 11 -24 -13 c-13 -8 -28 -11 -33 -8 -10 6 -77 -14 -89 -26 -4 -4 -25 -7 -46 -7 l-39 0 27 36 27 35 21 -2 c12 0 26 -1 33 0 21 2 198 156 349 304 l151 148 49 72 c27 40 54 76 61 80 l13 8 0 37 0 37 26 55 c14 30 30 63 35 72 34 66 1 59 -73 -15 -73 -74 -111 -103 -193 -147 -64 -35 -73 -37 -237 -70 l-107 -22 -26 20 c-15 12 -47 24 -73 28 -26 3 -60 12 -77 19 -69 28 -142 47 -170 43 l-30 -4 30 -12 c17 -7 42 -19 57 -27 14 -8 35 -15 45 -15 10 0 23 -4 29 -9 12 -12 122 -45 157 -47 16 -1 32 -5 35 -9 11 -11 -31 -36 -50 -29 l-18 5 0 -11 0 -11 93 2 c50 1 103 5 117 10 14 4 49 9 78 12 l52 4 0 -12 c0 -7 -18 -25 -40 -40 -22 -15 -40 -30 -40 -34 0 -13 -97 -71 -135 -80 -44 -11 -76 -20 -180 -51 -38 -11 -96 -25 -127 -29 -32 -5 -62 -12 -68 -16 -5 -3 -43 -10 -83 -16 -39 -5 -85 -11 -102 -14 -16 -3 -68 -9 -115 -13 -84 -8 -160 -33 -160 -52 0 -15 56 -12 97 5 l35 15 75 0 74 0 5 15 6 15 18 -10 c10 -6 37 -10 60 -10 l41 0 -16 -30 -16 -30 11 -20 c6 -11 15 -20 20 -20 20 0 9 -30 -19 -51 -15 -11 -38 -42 -50 -67 -12 -26 -27 -55 -32 -64 l-9 -18 12 -1 c7 0 27 -1 43 -2 36 -2 45 -21 13 -25 -13 -2 -31 -11 -41 -20 l-18 -16 -32 13 c-37 15 -80 15 -85 1 -2 -6 -21 -19 -43 -30 l-39 -20 -6 -25 c-3 -14 -23 -38 -43 -54 l-36 -28 -75 -7 c-81 -8 -110 -19 -110 -41 0 -8 -15 -21 -32 -29 l-33 -14 62 -1 c59 -1 86 -12 63 -26 -6 -4 -71 -12 -144 -18 l-132 -11 -65 18 c-74 21 -79 26 -79 82 0 23 -5 55 -11 73 l-11 32 -14 -12 -14 -11 -21 48 c-11 27 -25 72 -29 99 -5 28 -16 75 -25 105 -30 99 -35 124 -35 180 l0 55 48 18 c26 11 60 24 76 30 38 14 166 109 236 175 30 29 55 52 56 52 7 0 104 103 104 111 0 12 6 11 30 -3 26 -16 36 -4 22 27 l-12 25 10 0 c6 0 10 9 10 21 l0 21 18 4 c18 5 62 73 62 97 0 8 7 20 15 27 8 7 15 23 15 36 0 12 5 26 10 29 6 3 10 17 10 31 0 13 -4 24 -10 24 -19 0 -10 39 18 82 31 46 62 105 81 151 l11 28 18 -3 17 -3 3 -45 c2 -25 -2 -72 -8 -105 -6 -33 -16 -85 -21 -115 -55 -296 -190 -544 -416 -769 -57 -56 -102 -106 -99 -109 15 -14 136 70 223 156 19 17 37 32 40 32 4 0 30 25 59 55 l53 55 14 -6 15 -5 6 38 c3 21 9 57 12 81 l7 43 21 17 c12 9 32 34 45 55 27 44 34 46 48 10 l11 -28 1 28 c1 15 -3 27 -9 27 -16 0 -12 40 5 46 8 4 15 14 15 23 0 9 5 23 10 31 l9 15 13 -13 c6 -6 25 -12 41 -12 15 0 50 -7 78 -16 27 -9 57 -13 66 -10 l17 7 -14 9 c-8 5 -29 7 -47 4 l-31 -6 -16 24 -16 25 68 71 69 72 21 0 22 0 39 79 c51 101 77 179 107 321 13 63 28 126 34 140 5 14 19 61 30 104 12 44 26 87 30 95 49 94 110 224 110 235 0 8 3 16 8 18 10 4 72 96 72 107 0 5 7 14 14 21 8 6 20 28 27 48 6 20 20 45 30 55 17 16 27 57 14 57 -3 0 -24 -8 -48 -19 -23 -10 -56 -24 -73 -30 -17 -7 -57 -34 -90 -61 -32 -27 -63 -50 -67 -50 -15 0 -91 -57 -141 -104 -26 -25 -51 -46 -55 -46 -12 0 -29 -57 -21 -70 l8 -12 18 6 c11 3 37 22 59 42 81 72 121 101 182 132 34 18 65 32 68 32 6 0 -22 -57 -37 -74 -5 -6 -19 -30 -31 -53 -29 -57 -109 -187 -117 -193 -4 -3 -22 -41 -40 -85 -18 -44 -38 -86 -44 -94 -15 -20 -35 -76 -57 -166 -10 -44 -24 -89 -29 -100 -15 -31 -41 -107 -50 -145 -26 -112 -112 -270 -147 -270 -8 0 -21 -16 -30 -35 -9 -19 -20 -35 -25 -35 -14 0 -9 94 7 124 26 49 37 105 45 221 4 61 12 127 19 145 6 19 11 53 11 75 0 22 1 104 2 181 l3 142 54 40 c71 54 121 142 80 142 -15 0 -133 -122 -156 -161 -25 -41 -28 -37 -30 36 -1 36 -7 89 -13 118 -13 63 -39 380 -47 569 l-6 138 13 62 c8 35 24 83 37 107 12 24 20 47 17 52 -20 32 -90 -35 -134 -128 -17 -35 -35 -63 -40 -63 -14 0 -106 -92 -113 -113 l-7 -18 -19 6 c-21 6 -38 -10 -21 -20 15 -9 12 -25 -5 -25 -8 0 -24 -13 -37 -30 -12 -16 -29 -30 -39 -30 -9 0 -22 -7 -29 -15 -7 -8 -18 -15 -25 -15 -7 0 -24 -9 -38 -20 -29 -23 -53 -26 -61 -7 -3 6 -3 2 0 -10 l5 -23 -28 6 -29 6 -61 -36 c-34 -20 -65 -36 -69 -36 -4 0 -15 -6 -23 -14 -9 -8 -45 -29 -81 -47 -36 -17 -84 -44 -108 -60 -24 -16 -48 -29 -54 -29 -9 0 -50 -30 -115 -85 -7 -5 -18 -15 -26 -21 -7 -6 -23 -15 -35 -18 l-22 -7 0 10 c0 20 -19 11 -61 -29 -23 -22 -52 -46 -65 -55 -13 -8 -24 -22 -24 -30 0 -8 -4 -15 -10 -15 -10 0 -14 15 -11 34 1 6 -4 28 -12 50 -8 23 -18 55 -22 71 -8 40 -55 138 -69 147 -6 4 -12 25 -13 46 -1 41 -56 166 -83 192 -3 3 -30 37 -59 75 -30 39 -110 125 -177 191 l-124 121 -60 29 c-33 15 -60 34 -60 40 l0 12 -20 -5 -20 -5 0 15 c0 8 5 17 11 19 l12 4 -12 22 c-14 27 -31 21 -24 -8 9 -34 -11 -22 -31 20 -10 21 -24 41 -32 44 -7 3 -30 35 -52 73 -160 277 -255 413 -289 413 l-13 0 0 -24z m293 -486 c15 -7 40 -35 56 -60 16 -26 128 -146 248 -266 l220 -219 67 -103 c116 -176 163 -284 182 -412 2 -14 6 -37 10 -52 l6 -27 -106 -104 c-58 -58 -106 -110 -106 -117 0 -6 -23 -38 -50 -69 l-51 -58 -9 -59 -10 -58 11 -11 10 -10 25 28 c13 15 24 35 24 43 l0 15 20 -6 c11 -3 20 -2 20 3 0 40 289 364 381 427 24 17 49 35 54 41 6 6 32 26 60 45 27 19 69 53 92 75 24 23 49 45 56 48 6 3 26 15 42 26 17 11 37 22 45 26 17 6 24 10 100 56 30 19 84 42 120 53 36 10 77 27 93 38 l27 18 -6 25 -6 24 9 0 c5 0 14 -5 21 -12 l12 -12 22 11 c30 14 96 40 129 50 44 14 157 114 236 211 20 23 39 42 43 42 5 0 9 -83 10 -185 0 -102 4 -195 9 -208 l8 -22 -8 -195 c-9 -201 -31 -410 -55 -516 -8 -33 -14 -67 -14 -75 0 -18 -55 -190 -75 -234 -7 -16 -21 -50 -30 -75 -17 -44 -23 -57 -64 -152 -12 -26 -21 -57 -21 -69 l0 -20 -19 6 -19 6 -6 -23 c-3 -13 -6 -34 -6 -48 l0 -26 -20 -17 c-11 -9 -20 -22 -21 -29 0 -11 -65 -70 -137 -125 -13 -10 -33 -26 -45 -37 -63 -54 -170 -128 -228 -160 l-66 -35 -7 52 c-11 86 -19 373 -11 404 l7 28 12 -30 c46 -117 67 -140 74 -81 l3 27 -21 42 c-12 23 -29 50 -39 59 -9 9 -22 24 -28 32 l-13 15 0 83 c1 46 9 125 19 176 18 89 18 132 0 132 -8 0 -19 -19 -64 -110 -15 -30 -42 -86 -61 -124 -33 -66 -69 -110 -174 -213 -58 -58 -155 -133 -170 -133 -7 0 -33 -14 -58 -31 l-45 -30 -111 -35 c-307 -97 -308 -98 -401 -39 -22 14 -50 30 -62 37 -13 6 -23 15 -23 20 0 4 -7 8 -15 8 -8 0 -15 7 -15 15 0 25 24 17 121 -40 94 -55 113 -63 123 -46 6 9 -10 24 -115 101 -90 66 -198 158 -249 211 l-45 46 -17 54 c-10 30 -20 64 -23 75 l-6 22 -17 -5 -18 -4 -13 27 -12 27 -11 -11 -10 -10 -5 -103 c-3 -57 -9 -112 -15 -122 -12 -24 -12 -152 1 -242 l10 -70 -14 -15 c-8 -8 -41 -17 -72 -21 -66 -8 -166 -34 -203 -54 -14 -7 -51 -25 -82 -40 -32 -16 -67 -38 -79 -51 -27 -29 -43 -31 -34 -4 8 26 -1 25 -41 -5 -18 -14 -36 -25 -41 -25 -4 0 -30 -23 -56 -50 -27 -28 -53 -50 -58 -50 -5 0 -12 -12 -15 -27 -4 -16 -13 -36 -22 -45 l-14 -17 7 -38 6 -38 -40 45 c-23 24 -41 52 -41 62 0 9 -5 20 -11 24 l-12 7 7 60 6 60 -9 11 c-4 6 -11 22 -14 36 -3 14 -15 50 -27 80 -12 30 -24 65 -27 77 -3 12 -11 28 -19 34 -8 6 -14 19 -14 29 0 10 -7 23 -15 30 l-15 12 -4 -13 c-13 -42 -15 -38 -9 20 l6 64 -12 -7 c-6 -4 -11 -14 -11 -22 0 -8 -4 -14 -10 -14 -5 0 -10 10 -10 23 0 13 -7 32 -15 43 -20 27 -18 44 5 44 l20 0 0 16 c0 25 -29 113 -56 169 -28 58 -30 83 -9 91 8 4 15 12 15 20 0 15 17 49 38 75 l13 16 -20 6 -20 5 -6 36 -7 36 12 15 c7 8 10 22 6 30 -3 9 0 25 7 35 l12 20 -13 20 c-14 23 -8 40 13 40 19 0 24 21 18 69 l-6 42 -13 -5 c-21 -8 -27 12 -10 36 l16 23 -6 30 -5 30 20 46 c12 26 28 52 36 59 8 7 15 17 15 23 0 6 6 18 13 26 19 23 67 173 79 245 26 167 40 259 48 343 6 51 15 104 20 118 6 15 10 87 10 160 l0 134 12 26 c6 14 16 25 22 25 30 0 166 -217 166 -264 0 -8 6 -19 13 -23 16 -11 47 -70 47 -92 0 -9 6 -26 14 -37 20 -28 23 -58 8 -77 l-14 -16 7 -22 7 -22 13 23 13 24 21 -42 c11 -23 21 -48 21 -55 0 -8 6 -20 14 -26 8 -7 18 -26 21 -42 4 -16 11 -29 16 -29 5 0 9 -10 9 -23 0 -13 16 -54 35 -91 19 -38 35 -79 35 -92 0 -13 4 -24 9 -24 9 0 14 -27 27 -137 6 -51 17 -67 27 -40 l5 12 5 -15 c2 -8 9 -37 15 -65 22 -102 71 -246 87 -252 l10 -3 0 88 0 89 -13 16 c-17 20 -42 125 -35 144 3 7 -2 30 -12 51 -28 63 -87 176 -105 202 -28 41 -50 92 -50 115 0 11 -7 30 -15 41 -15 20 -20 64 -7 64 10 -1 52 -68 52 -84 0 -8 7 -19 15 -26 8 -7 15 -20 15 -29 1 -9 18 -34 40 -55 l38 -39 45 -121 c49 -136 65 -188 77 -262 4 -28 13 -61 19 -72 6 -11 11 -38 11 -59 1 -21 9 -60 19 -88 l17 -50 25 0 24 0 2 30 c2 45 -16 186 -25 199 -5 6 -12 27 -16 46 -10 59 -31 127 -43 141 -6 8 -14 41 -18 74 l-6 60 15 30 c9 17 16 37 16 46 0 9 7 34 16 55 8 22 21 52 27 68 7 17 33 73 58 125 58 122 75 176 89 279 l11 84 -11 136 c-7 75 -18 163 -27 195 -8 32 -12 66 -8 75 l7 17 21 -25 c12 -14 34 -32 50 -40z m-2382 -650 c4 -8 18 -34 31 -58 21 -41 47 -67 209 -214 120 -108 214 -168 262 -168 l25 0 6 -15 c3 -8 13 -15 22 -15 9 0 27 -9 41 -20 14 -11 32 -20 39 -20 8 0 22 -4 32 -9 42 -23 149 -71 158 -71 5 0 23 -12 40 -27 16 -16 56 -46 87 -67 31 -22 57 -43 57 -46 0 -4 10 -10 21 -13 l22 -6 -6 -36 c-3 -19 -1 -49 5 -66 l11 -32 -18 -31 c-10 -17 -23 -34 -29 -39 l-11 -7 18 -14 17 -13 0 -31 0 -31 33 -31 32 -31 -17 -10 c-10 -5 -18 -19 -18 -30 l0 -21 -12 5 -13 4 3 32 2 31 -15 0 c-8 0 -17 11 -21 24 -12 51 -64 38 -64 -15 0 -37 35 -104 68 -129 l27 -20 -17 -11 -18 -10 0 -46 0 -46 15 -17 c14 -16 55 -114 55 -132 0 -21 -30 -3 -57 35 -74 101 -288 299 -381 350 l-32 18 -20 -6 -20 -6 0 13 c0 7 -18 33 -41 58 -23 25 -60 65 -83 90 -87 95 -273 346 -308 415 -8 17 -29 57 -46 90 -52 102 -77 185 -102 341 -5 34 -14 74 -20 90 l-11 28 7 26 6 25 10 -25 c6 -14 14 -32 19 -40z m209 -1079 c0 -11 5 -23 10 -26 6 -3 10 -17 10 -31 0 -13 -4 -24 -10 -24 -5 0 -10 12 -10 26 l0 26 -20 5 c-22 6 -22 6 -14 27 3 9 12 16 20 16 l14 0 0 -19z m2169 -456 c30 -30 60 -55 68 -55 7 0 13 -4 13 -10 0 -5 -7 -10 -15 -10 -23 0 -18 -24 7 -35 13 -6 24 -19 26 -30 5 -26 41 -54 70 -55 12 0 22 -5 22 -11 l0 -12 -42 6 -42 6 -10 -15 -11 -14 -148 -15 c-81 -8 -156 -19 -165 -24 -18 -9 -42 -4 -42 8 0 12 98 40 167 47 71 7 76 21 8 22 -25 1 -50 4 -56 8 l-10 6 17 19 16 18 -6 34 c-3 18 -3 37 1 41 5 4 8 24 9 44 1 39 13 128 20 151 l4 14 23 -42 c12 -23 46 -66 76 -96z m886 -127 c29 -13 30 -19 10 -59 -9 -16 -13 -34 -9 -40 3 -6 -3 -17 -15 -25 -12 -8 -21 -21 -21 -29 0 -7 -6 -20 -12 -27 -26 -26 -68 -87 -68 -96 0 -6 -7 -13 -15 -16 l-16 -6 6 -34 7 -34 -11 -6 c-6 -4 -11 -18 -11 -32 l0 -24 16 0 c9 0 18 9 21 20 3 11 10 20 15 20 l10 0 -7 -27 c-4 -16 -8 -48 -8 -73 0 -25 -2 -35 -4 -22 l-4 22 -20 0 -19 0 0 -29 0 -29 -15 -6 c-8 -3 -15 -15 -15 -26 l0 -20 14 0 c8 0 16 10 18 22 2 12 9 23 16 26 l12 4 0 -24 c-1 -28 -32 -68 -54 -68 l-16 0 0 17 0 17 -19 -20 c-18 -20 -41 -58 -41 -68 0 -3 9 -6 20 -6 l20 0 0 -14 c0 -7 -10 -26 -22 -42 -13 -16 -26 -33 -30 -39 -4 -5 -21 -26 -38 -46 -16 -20 -30 -40 -30 -43 0 -6 -43 -67 -86 -121 -9 -11 -32 -41 -52 -67 -20 -25 -45 -49 -54 -51 -20 -6 -24 -27 -5 -27 17 0 137 109 137 125 0 7 6 15 13 18 6 2 30 31 52 63 22 33 66 91 97 131 32 39 58 75 58 79 0 11 31 44 42 44 9 0 11 -80 2 -104 -3 -9 -15 -16 -25 -16 l-19 0 0 -36 0 -35 26 3 c29 3 33 8 64 83 32 74 53 115 82 161 15 23 28 58 30 78 2 20 8 37 13 39 17 4 17 -63 1 -98 -9 -18 -16 -37 -16 -42 0 -10 -22 -60 -41 -95 -5 -10 -9 -30 -9 -45 l0 -28 19 24 c19 25 64 133 76 183 4 15 13 32 21 39 l14 11 0 75 0 74 11 -7 11 -7 -6 30 -7 30 21 78 c11 43 25 86 31 97 5 10 9 24 8 31 -3 23 1 37 11 37 6 0 10 -6 10 -14 0 -15 24 -28 34 -19 3 4 6 39 6 80 l0 73 10 0 c6 0 10 -11 10 -25 0 -14 6 -64 14 -112 8 -49 17 -120 20 -160 l5 -71 -20 -23 c-10 -12 -19 -34 -19 -48 0 -14 -2 -51 -5 -81 l-5 -55 11 28 c19 47 48 15 35 -39 l-6 -24 -30 -15 c-33 -17 -35 -23 -18 -60 13 -28 30 -32 48 -11 15 19 37 10 46 -17 3 -12 13 -30 22 -40 l15 -17 -12 -56 -13 -56 -8 8 c-11 11 -14 82 -5 112 l7 22 -22 0 -22 0 6 -110 5 -110 -22 -21 -22 -20 -22 6 -23 5 -2 -32 c-1 -18 -2 -41 -2 -51 -1 -9 -12 -24 -24 -33 -27 -19 -28 -30 -2 -37 l20 -5 0 -20 c0 -12 9 -27 20 -35 11 -8 25 -28 31 -46 13 -37 33 -36 37 2 l3 27 13 0 c8 0 19 6 25 13 l11 14 28 -5 29 -4 16 25 c9 13 27 27 41 29 l24 5 6 -21 c3 -12 6 -38 6 -59 l0 -37 -31 -64 -31 -64 -75 -68 c-85 -77 -197 -154 -224 -154 -11 0 -19 -6 -19 -13 l0 -13 -57 -19 c-32 -10 -68 -25 -80 -33 l-22 -14 -21 7 -22 7 -19 -21 -20 -21 -32 0 c-18 0 -42 -7 -53 -15 -10 -8 -30 -15 -43 -15 -13 0 -51 -7 -84 -16 l-62 -16 -157 -1 -156 -1 -6 -29 -6 -29 -22 7 c-13 4 -35 9 -50 12 -15 3 -33 11 -39 19 -6 8 -23 14 -36 14 -14 0 -37 6 -51 14 -15 7 -48 23 -73 35 l-46 21 -24 35 c-14 19 -54 57 -90 84 -128 98 -369 365 -369 408 0 5 -9 18 -20 28 -11 10 -20 23 -20 30 0 7 -15 41 -33 76 -18 35 -39 84 -46 109 -7 25 -20 59 -29 75 l-17 30 1 97 0 97 17 19 c9 10 17 23 17 29 0 5 14 29 30 51 17 23 30 45 30 50 0 16 176 180 210 195 19 8 71 28 115 42 l80 27 100 9 c55 6 136 12 180 16 44 3 85 9 92 15 6 5 40 9 75 9 86 -1 208 18 233 35 10 8 29 14 40 14 12 0 25 4 31 9 5 5 36 16 69 25 33 10 74 24 92 33 l31 15 52 -11 52 -11 25 20 c14 11 34 20 43 20 24 0 43 26 37 50 -6 23 2 25 38 8z m-1595 -282 c0 -3 -27 -32 -60 -65 l-60 -61 0 16 c0 17 64 84 80 84 6 0 10 7 10 15 0 8 7 15 15 15 8 0 15 -2 15 -4z m2064 -673 c7 -16 15 -48 17 -72 l4 -44 -12 -4 c-17 -6 -32 27 -39 91 l-7 56 11 0 c6 0 18 -12 26 -27z m-3743 -375 c6 -15 18 -28 25 -28 19 0 18 -24 -1 -40 l-15 -12 -13 11 c-8 6 -25 38 -38 71 -13 33 -27 60 -31 60 -5 0 -8 7 -8 16 l0 16 35 -33 c18 -18 39 -45 46 -61z m1649 -1812 c0 -37 -18 -76 -35 -76 l-15 0 0 19 c0 22 31 81 43 81 4 0 7 -11 7 -24z m-60 -210 c0 -13 7 -40 15 -60 9 -20 13 -42 9 -47 l-6 -10 -15 21 -15 21 -19 -6 c-22 -7 -24 4 -5 30 7 10 11 27 8 37 -6 24 5 51 18 43 5 -3 10 -17 10 -29z m-88 -553 l3 -28 38 -5 c44 -6 50 -22 10 -32 -15 -3 -38 -9 -49 -13 l-22 -7 -4 39 c-5 42 0 73 13 73 4 0 9 -12 11 -27z m153 -173 c3 -5 15 -10 26 -10 l19 0 0 -30 0 -30 -12 0 c-16 1 -78 56 -78 70 0 13 37 13 45 0z"/> <path d="M4227 6103 c-7 -11 36 -86 48 -85 20 2 14 28 -14 60 -16 19 -31 30 -34 25z"/> <path d="M4076 6051 c-4 -5 -1 -22 4 -37 6 -15 15 -52 20 -83 5 -31 16 -87 26 -124 l16 -69 11 11 10 10 -5 84 -4 84 -32 66 c-34 69 -37 73 -46 58z"/> <path d="M5846 5958 c-2 -7 -12 -35 -21 -63 -9 -27 -20 -63 -24 -80 -9 -32 -25 -70 -40 -95 -5 -8 -23 -46 -40 -85 -17 -38 -36 -77 -41 -85 -5 -8 -21 -37 -35 -65 -14 -27 -35 -63 -45 -80 -11 -16 -23 -37 -27 -45 -16 -34 -68 -107 -93 -130 -36 -33 -84 -99 -78 -106 13 -12 76 40 108 88 19 29 40 58 46 63 26 25 74 94 74 108 0 9 4 18 9 21 5 3 27 44 50 90 23 47 46 88 51 91 6 3 10 14 10 24 0 10 6 24 14 30 8 6 16 24 19 39 7 38 30 95 45 110 6 7 12 28 12 46 l0 34 15 12 15 12 0 39 0 39 -10 0 c-6 0 -12 -6 -14 -12z"/> <path d="M3078 5489 l-28 -21 0 -37 c0 -20 -5 -42 -11 -48 l-11 -11 12 -7 c17 -11 37 12 45 52 l7 37 17 -22 16 -23 13 13 c15 15 15 30 0 63 -14 30 -24 31 -60 4z"/> <path d="M2967 5393 c-4 -3 -7 -16 -7 -28 0 -12 -9 -30 -20 -40 l-20 -18 0 -29 c0 -15 -4 -28 -10 -28 -11 0 -13 15 -11 65 l2 30 -23 -25 -23 -25 0 -60 0 -60 15 1 c8 1 23 5 32 9 l18 7 4 -13 c2 -8 7 -26 10 -41 8 -36 26 -36 26 -1 0 14 7 35 16 44 l16 18 -1 93 c-2 88 -9 117 -24 101z"/> <path d="M2701 5097 l-12 -36 2 -90 3 -91 -12 -12 c-18 -18 -15 -36 12 -71 13 -18 26 -51 30 -75 3 -24 11 -51 16 -60 5 -9 11 -29 15 -44 8 -39 25 -35 25 6 l0 34 -15 12 -15 12 0 52 c0 29 5 57 11 63 l11 11 -11 19 c-5 11 -15 80 -22 154 -13 146 -21 170 -38 116z"/> <path d="M3465 5069 c-15 -66 19 -259 42 -236 15 15 -6 230 -24 248 l-12 12 -6 -24z"/> <path d="M3970 5014 c-117 -17 -143 -27 -191 -77 -45 -45 -47 -54 -16 -66 l22 -9 20 18 c38 36 89 49 263 69 l83 10 117 -14 c64 -8 131 -19 147 -24 17 -6 64 -20 105 -32 41 -12 83 -25 92 -30 10 -5 23 -9 30 -9 7 -1 31 -9 53 -20 22 -11 45 -19 51 -20 5 0 34 -11 62 -25 29 -14 61 -25 72 -25 11 0 23 -7 26 -15 7 -16 49 -21 58 -6 6 9 -56 51 -74 51 -5 0 -29 14 -53 30 -25 17 -48 30 -51 30 -4 0 -26 8 -49 19 -103 46 -197 74 -337 101 -113 22 -147 30 -177 39 -18 5 -60 12 -95 14 l-63 5 -95 -14z"/> <path d="M4086 4851 l-18 -20 8 -13 c4 -7 16 -23 27 -35 l20 -23 31 0 31 0 13 21 c35 55 -68 119 -112 70z"/> <path d="M2945 4768 c4 -13 11 -59 15 -103 4 -44 13 -96 20 -115 7 -19 15 -41 17 -49 l4 -14 9 9 c5 5 10 57 11 115 l2 106 -28 37 c-15 20 -34 36 -42 36 l-15 0 7 -22z"/> <path d="M4402 4711 c-5 -3 -15 -17 -21 -29 l-13 -24 23 -24 22 -24 38 0 38 0 12 21 11 22 -12 22 -12 23 -38 10 c-21 5 -42 7 -48 3z"/> <path d="M5177 4709 c-19 -11 -23 -44 -7 -54 15 -9 40 14 40 36 0 23 -11 30 -33 18z"/> <path d="M3939 4677 l-10 -23 10 -26 c6 -15 22 -35 36 -44 l26 -17 24 11 25 12 0 24 0 24 -35 31 c-42 37 -62 39 -76 8z"/> <path d="M4723 4635 l-5 -16 17 -19 c27 -29 85 -21 85 11 0 18 -34 39 -61 39 l-30 0 -6 -15z"/> <path d="M4307 4468 l-6 -23 14 -21 c17 -26 43 -34 73 -23 l22 8 0 19 c0 25 -44 62 -74 62 l-24 0 -5 -22z"/> <path d="M5254 4260 l1 -71 20 3 20 3 3 49 3 48 -17 19 c-27 30 -30 24 -30 -51z"/> <path d="M2415 5170 c-10 -17 16 -41 39 -38 l21 3 3 23 3 22 -30 0 c-16 0 -33 -5 -36 -10z"/> <path d="M3894 4295 c-8 -34 0 -41 31 -25 24 13 35 40 16 40 -5 0 -16 3 -25 6 l-15 6 -7 -27z"/> <path d="M4393 4207 c-11 -19 -70 -46 -112 -53 -20 -3 -52 -13 -71 -23 l-35 -16 -3 -23 -3 -22 14 0 c8 0 22 9 31 19 l18 19 50 7 51 7 53 41 c29 23 50 45 48 49 -8 13 -32 9 -41 -5z"/> <path d="M4902 3758 c-5 -7 -13 -23 -16 -35 -4 -13 -12 -23 -17 -23 -5 0 -9 -14 -9 -31 l0 -31 12 4 c16 6 58 86 58 110 0 21 -13 24 -28 6z"/> <path d="M4796 3483 c-3 -10 -9 -25 -14 -33 -25 -42 -42 -80 -42 -93 0 -8 -7 -17 -15 -21 -17 -6 -21 -46 -5 -46 6 0 10 9 10 20 0 11 7 23 15 26 8 4 15 13 15 21 0 8 9 17 20 20 21 6 25 15 35 81 l7 42 -10 0 c-5 0 -12 -8 -16 -17z"/> <path d="M4467 3219 c-10 -6 -25 -8 -33 -5 l-14 5 0 -23 c0 -12 -9 -31 -20 -41 -22 -20 -26 -50 -9 -61 l11 -6 34 33 c19 18 34 41 34 51 0 9 9 22 20 28 22 12 27 30 8 30 -7 0 -21 -5 -31 -11z"/> <path d="M7854 7126 c-16 -41 188 -229 336 -310 19 -10 54 -32 78 -48 24 -15 49 -28 55 -28 7 0 21 -6 32 -13 11 -7 45 -24 75 -36 29 -13 70 -33 90 -45 19 -12 54 -28 77 -34 l41 -12 24 9 24 9 45 -10 c24 -5 65 -12 90 -15 l46 -5 39 27 c21 14 40 28 42 30 6 5 -46 101 -62 114 -9 8 -16 17 -16 22 0 11 -53 80 -99 131 l-33 36 -34 -5 -35 -6 -23 22 -23 21 -66 -9 c-36 -5 -70 -12 -75 -15 -17 -10 -133 13 -199 40 -37 15 -99 33 -138 40 -38 6 -83 17 -100 22 -16 6 -50 16 -75 23 -25 7 -60 23 -78 36 l-32 24 -6 -15z"/> <path d="M7820 6998 c0 -15 67 -88 81 -88 5 0 9 -9 9 -20 l0 -20 23 -9 c12 -5 33 -21 47 -36 30 -32 99 -80 130 -90 l22 -7 13 -31 c27 -64 188 -177 253 -177 16 0 44 -7 61 -16 l33 -16 25 11 25 11 -12 15 c-7 8 -22 15 -33 15 -11 0 -30 10 -42 23 -50 49 -67 56 -98 42 -10 -4 -21 -4 -25 0 -4 4 -1 10 6 12 6 3 12 9 12 14 l0 9 -27 -6 -28 -6 19 14 19 15 -12 7 c-7 5 -28 5 -47 2 -35 -7 -43 1 -22 22 l12 12 -14 0 c-7 0 -23 9 -35 20 l-22 21 -13 -16 c-20 -24 -27 -18 -34 25 l-6 40 -15 0 c-7 0 -29 14 -47 30 -18 17 -38 30 -45 30 -7 0 -13 7 -13 15 0 8 -4 15 -9 15 -5 0 -33 21 -62 47 -78 72 -129 100 -129 71z"/> <path d="M334 6518 l1 -63 14 0 c8 0 18 7 24 16 l10 16 -17 33 c-9 18 -16 39 -16 47 0 7 -4 13 -8 13 -5 0 -8 -28 -8 -62z"/> <path d="M3140 6547 c0 -8 9 -22 20 -32 11 -10 20 -22 20 -27 0 -6 9 -21 20 -35 l20 -26 0 25 c0 14 -9 33 -19 42 -11 10 -22 28 -25 42 -7 25 -36 34 -36 11z"/> <path d="M7242 6028 c-7 -7 -12 -24 -12 -39 l0 -27 14 -5 c20 -8 26 2 26 45 0 39 -8 46 -28 26z"/> <path d="M2433 5783 c-7 -2 -13 -16 -13 -29 0 -13 -4 -32 -9 -42 -14 -26 -34 -150 -27 -167 6 -17 36 -21 36 -4 0 6 7 26 16 45 l17 35 -19 14 -19 14 18 1 c17 0 21 8 17 48 l-1 22 16 0 16 0 -3 32 -3 33 -15 2 c-8 1 -21 -1 -27 -4z"/> <path d="M974 5695 l-6 -25 -23 0 -23 0 -6 -16 c-3 -9 -6 -26 -6 -39 0 -12 -7 -35 -15 -51 l-14 -29 6 -90 6 -90 15 -22 c27 -42 49 -22 68 62 4 17 13 40 21 52 8 11 16 43 18 70 2 26 7 76 10 111 l7 63 -12 14 c-19 23 -39 18 -46 -10z"/> <path d="M1135 5680 c-6 -43 -7 -86 -6 -288 l0 -94 13 4 13 5 2 192 3 192 -9 17 -9 16 -7 -44z"/> <path d="M853 5194 c-8 -13 -22 -24 -29 -24 l-14 0 0 -23 c0 -12 7 -33 16 -45 l15 -22 23 0 24 0 16 25 c9 13 16 42 16 63 l0 40 -26 5 -25 4 -16 -23z"/> <path d="M7797 4903 c-18 -17 16 -73 43 -73 l10 0 -6 28 c-10 43 -31 62 -47 45z"/> <path d="M7885 4869 l-7 -33 18 -13 c21 -15 60 -17 69 -3 7 11 -22 70 -34 70 -5 0 -16 3 -24 6 l-15 5 -7 -32z"/> <path d="M7682 4843 l3 -38 25 -12 c14 -7 33 -22 43 -34 24 -30 27 -22 16 34 l-11 47 -25 20 c-14 11 -32 20 -40 20 l-14 0 3 -37z"/> <path d="M8673 4433 c-13 -14 -23 -30 -23 -34 0 -4 -9 -5 -19 -2 l-20 5 -93 -93 -93 -94 -38 -74 c-50 -96 -83 -193 -91 -263 l-6 -57 11 -25 12 -25 -13 -31 -12 -30 -18 0 -18 0 -5 -57 -4 -58 12 -60 c33 -161 155 -315 322 -408 l33 -18 35 7 35 6 0 15 c0 16 -36 52 -90 93 -108 80 -168 166 -214 303 l-16 48 0 77 0 78 -15 21 -15 22 16 40 c9 23 20 41 25 41 5 0 10 19 10 43 l2 42 4 -27 c7 -43 43 -27 43 19 l0 22 21 11 20 11 -6 29 -6 28 29 21 c37 26 48 26 61 4 l10 -18 6 18 c12 31 25 18 25 -25 0 -24 4 -49 8 -55 l8 -13 23 16 c32 23 41 53 57 185 7 64 18 128 24 143 5 15 10 54 10 87 l0 59 -12 -1 c-7 0 -23 -12 -35 -26z"/> <path d="M7765 4229 c-4 -18 -9 -53 -11 -78 -5 -59 -37 -178 -52 -193 l-12 -12 0 -56 0 -55 -10 15 c-5 8 -10 27 -10 43 0 33 -16 36 -24 3 -21 -85 -91 -140 -198 -157 l-71 -11 -76 6 c-42 3 -105 10 -141 15 -89 14 -239 20 -245 11 -8 -13 23 -33 41 -26 8 3 29 -1 46 -10 16 -8 32 -13 35 -11 2 3 28 -2 56 -10 77 -22 174 -35 246 -34 35 1 85 -3 110 -10 l47 -12 28 18 27 18 10 -10 10 -10 -93 -90 c-113 -110 -150 -144 -208 -191 -25 -21 -49 -42 -55 -48 -41 -44 -160 -115 -248 -148 l-48 -18 -17 15 -17 15 -39 -2 -38 -2 -13 -18 -13 -17 -9 14 -8 15 -94 6 c-52 3 -100 11 -107 17 l-12 10 -177 0 c-206 -1 -454 -18 -472 -32 -6 -6 -21 -8 -32 -4 -11 3 -28 2 -38 -3 -20 -11 -153 -52 -166 -52 -9 0 -64 -25 -204 -91 l-103 -49 0 -15 c0 -16 20 -20 36 -6 5 5 36 16 69 26 33 9 78 23 100 31 53 18 141 34 245 44 47 4 111 15 142 23 31 9 110 18 175 22 l119 6 14 -40 13 -41 13 11 c7 6 10 17 7 25 -3 8 -2 21 1 30 l6 17 20 -18 20 -18 53 7 c58 6 73 1 55 -21 -17 -21 -6 -25 74 -28 40 -2 78 -4 83 -4 6 -1 -1 -11 -15 -22 l-25 -21 19 -14 c24 -17 36 -10 29 16 l-5 20 17 7 18 6 12 -16 c14 -19 46 -22 61 -7 l11 11 25 -21 c30 -23 48 -26 48 -6 0 18 42 45 83 53 17 3 37 13 44 22 l12 16 6 -17 c9 -22 41 -24 49 -3 l5 15 49 0 c26 0 52 4 58 9 11 10 64 24 64 16 0 -12 -107 -106 -127 -111 -13 -4 -23 -10 -23 -15 0 -18 -105 -109 -126 -109 -3 0 -19 -9 -35 -21 l-30 -21 -37 -2 -37 -1 3 -14 3 -13 -16 6 c-21 8 -139 -20 -192 -45 -23 -11 -47 -17 -53 -14 -6 4 -19 0 -28 -8 -9 -8 -55 -29 -102 -47 -47 -18 -92 -39 -101 -47 -8 -7 -28 -13 -42 -13 -15 0 -44 -9 -64 -20 -21 -11 -45 -20 -55 -20 -10 0 -22 -9 -28 -20 l-11 -20 -30 0 c-16 0 -43 -7 -59 -15 l-30 -16 0 -24 0 -24 -18 -10 -19 -10 -135 1 -136 0 -79 -17 c-43 -9 -87 -20 -98 -24 -11 -4 -71 -3 -134 3 l-114 11 -5 13 -4 12 -35 0 -36 0 -36 22 c-20 12 -38 25 -41 28 -7 9 -88 40 -105 40 -23 0 -18 -18 7 -26 13 -4 27 -13 33 -19 17 -21 176 -135 188 -135 7 0 28 -15 48 -33 159 -142 201 -183 240 -234 24 -32 49 -62 55 -68 7 -5 23 -28 37 -51 14 -22 31 -47 39 -55 60 -64 208 -310 208 -346 0 -10 6 -27 13 -38 14 -21 33 -74 62 -170 29 -99 44 -140 63 -164 40 -54 110 -120 154 -146 52 -29 62 -40 54 -54 l-6 -9 -38 9 c-20 6 -50 16 -67 24 -16 7 -45 19 -62 25 -18 7 -43 22 -57 34 -13 11 -38 32 -56 46 -88 67 -439 412 -515 505 -84 104 -287 275 -325 275 -4 0 -13 7 -20 15 -7 8 -27 17 -45 21 -18 3 -43 17 -56 30 l-22 24 -29 0 c-15 0 -28 -4 -28 -10 0 -30 -80 8 -139 66 -19 19 -41 34 -50 34 -9 1 -29 20 -44 43 -65 97 -77 113 -104 142 -16 17 -33 39 -38 50 l-8 20 -4 -18 -5 -18 26 -24 c14 -13 26 -32 26 -41 0 -10 12 -30 26 -45 28 -29 49 -62 60 -91 3 -10 15 -20 25 -23 10 -4 19 -10 19 -15 0 -5 9 -12 20 -15 l20 -6 0 -25 0 -25 27 -25 c15 -14 28 -33 28 -42 0 -9 14 -26 32 -37 18 -11 32 -26 33 -32 0 -7 11 -15 25 -19 l25 -6 0 -18 c0 -18 48 -60 69 -60 5 0 28 -18 50 -40 l39 -40 36 0 36 0 0 -19 c0 -10 -7 -24 -15 -31 -16 -14 -20 -40 -6 -40 5 0 11 6 14 14 3 7 19 16 36 19 l31 7 0 15 c0 21 -69 93 -105 110 -42 18 -71 42 -63 51 5 4 16 0 26 -9 10 -10 30 -17 43 -17 l24 0 25 -30 c14 -16 28 -30 32 -30 7 0 58 -48 58 -55 0 -2 -13 -18 -30 -35 -34 -35 -37 -48 -12 -57 25 -9 93 -83 122 -134 14 -24 45 -65 70 -90 25 -25 53 -60 62 -77 l17 -32 28 0 c15 0 39 -9 53 -20 14 -11 31 -20 38 -20 6 0 12 -5 12 -10 l0 -10 -42 6 c-24 4 -57 15 -74 25 l-32 19 -16 -6 c-9 -3 -16 -10 -16 -14 0 -12 64 -50 83 -50 17 0 107 -86 107 -101 l0 -9 -42 6 c-24 3 -58 10 -76 16 l-34 10 -11 -11 c-16 -16 -5 -22 44 -24 l44 -2 0 -20 0 -20 -103 3 c-56 1 -122 7 -145 12 -105 22 -143 34 -162 46 -11 8 -34 14 -51 14 l-32 0 -12 15 c-7 8 -25 15 -40 15 -16 0 -41 6 -57 14 -15 8 -46 23 -68 33 -22 10 -42 20 -45 23 -3 3 -24 18 -46 33 -175 119 -321 331 -366 532 -27 126 -50 208 -60 219 l-8 10 -12 -12 c-18 -18 -28 -14 -28 11 0 13 9 32 20 42 l20 18 -6 131 c-2 72 -7 140 -11 150 l-5 19 -10 -18 c-6 -9 -13 -55 -16 -102 -2 -46 -9 -86 -13 -89 -5 -3 -9 -20 -9 -39 0 -41 -9 -67 -21 -59 -5 3 -9 16 -9 30 0 49 -33 20 -83 -73 -18 -33 -42 -79 -55 -102 l-22 -41 -38 -16 -37 -15 17 -10 c10 -6 18 -17 18 -24 0 -22 -28 -18 -40 4 l-10 19 -20 -5 c-28 -7 -34 -21 -18 -40 l13 -17 -19 7 -19 7 -41 -44 c-23 -24 -51 -49 -63 -55 l-22 -11 -43 15 c-89 31 -95 21 -30 -43 67 -66 107 -92 139 -92 l29 0 24 28 c14 15 62 56 107 90 46 35 95 79 110 99 16 20 42 52 59 72 17 20 43 57 58 84 15 26 31 47 36 47 l9 0 -2 -98 -2 -99 26 -39 c15 -21 29 -54 33 -73 l6 -34 -11 -14 -12 -14 28 -52 c16 -28 45 -71 66 -95 54 -62 65 -123 18 -93 -12 7 -23 10 -26 7 -9 -8 45 -74 70 -87 12 -6 31 -19 42 -29 11 -9 34 -22 50 -28 17 -5 39 -13 50 -17 l20 -8 -12 14 c-33 34 5 40 39 6 28 -28 76 -53 120 -63 18 -3 58 -26 88 -49 53 -40 128 -75 162 -75 8 0 21 -6 27 -14 12 -15 37 -21 140 -36 35 -5 68 -14 75 -19 6 -5 59 -11 119 -14 59 -3 112 -9 117 -12 6 -4 43 -1 83 5 l72 11 85 -12 c192 -25 390 -13 613 37 87 21 91 25 41 49 l-37 17 -33 -5 -34 -6 -32 27 c-93 77 -220 228 -244 292 -3 8 -10 23 -15 33 -6 10 -13 41 -16 68 -3 27 -10 52 -14 55 -15 9 -10 35 11 61 l20 26 -11 13 c-16 20 -27 17 -31 -6 -5 -32 -23 -29 -26 5 -2 16 -11 34 -19 41 l-16 11 8 13 8 13 13 -17 12 -17 6 10 c4 5 -5 36 -19 68 l-26 58 11 3 c13 5 13 32 0 32 -5 0 -10 -7 -10 -15 0 -8 -7 -15 -15 -15 -7 0 -19 -8 -25 -17 l-11 -18 6 30 6 31 -31 29 -30 29 0 27 0 27 -30 30 c-16 17 -30 33 -30 36 0 11 -60 93 -89 120 -17 17 -31 35 -31 40 0 6 -39 49 -87 95 l-88 84 -42 18 c-24 10 -43 22 -43 28 0 12 60 20 85 11 29 -11 244 -1 285 13 30 10 81 14 240 17 14 1 32 3 40 7 8 3 38 6 65 7 l50 1 -3 18 -3 17 22 0 21 0 -6 -15 -5 -15 35 0 35 0 66 35 66 35 45 0 c48 0 161 26 177 41 5 5 19 9 31 9 12 0 27 7 34 15 7 8 18 15 24 15 6 1 29 9 51 20 22 11 46 19 53 20 8 0 27 10 44 21 16 12 64 40 107 63 83 44 167 97 191 119 8 8 33 26 56 40 73 45 339 338 411 452 84 132 203 366 203 398 0 7 7 26 16 42 18 33 30 78 45 168 5 33 12 64 16 70 8 11 14 69 12 112 0 11 0 27 1 35 5 69 -11 129 -37 137 l-11 4 -7 -32z m-1085 -1579 c0 -5 -12 -13 -26 -16 -14 -4 -46 -17 -71 -30 -24 -13 -50 -24 -57 -24 -8 0 -19 -6 -25 -14 -7 -8 -28 -17 -48 -21 -20 -4 -46 -13 -57 -21 -11 -8 -32 -14 -46 -14 -14 0 -38 -7 -54 -15 -15 -8 -37 -15 -48 -15 l-20 0 4 12 c6 16 68 48 95 48 12 0 25 5 28 10 3 6 19 10 35 10 16 0 59 16 94 35 36 19 78 35 94 35 16 0 35 7 42 15 14 17 60 21 60 5z"/> <path d="M8946 4157 c-10 -17 -38 -68 -61 -112 l-42 -80 -6 -45 c-3 -25 -4 -39 -1 -32 3 6 12 12 20 12 8 0 18 8 21 18 4 9 13 23 20 30 7 7 13 22 13 33 0 10 5 19 10 19 6 0 15 12 21 27 l10 26 11 -11 c17 -17 38 -15 38 3 0 8 -7 15 -16 15 l-15 0 3 18 c2 9 10 16 16 15 l12 -3 0 50 0 50 -17 0 -18 0 -19 -33z"/> <path d="M8833 4078 c-21 -10 -48 -53 -98 -158 -14 -30 -32 -67 -40 -82 -8 -14 -15 -38 -15 -52 0 -15 -5 -35 -11 -45 l-12 -18 7 -27 7 -28 14 12 c8 7 15 21 15 31 0 10 5 21 10 24 6 3 10 14 10 23 0 9 7 30 15 46 8 15 15 34 15 42 0 21 56 150 76 174 11 13 37 71 31 69 -1 0 -12 -5 -24 -11z"/> <path d="M2079 4048 l-12 -22 23 -18 c12 -10 28 -18 36 -18 l14 0 0 23 c0 45 -43 69 -61 35z"/> <path d="M0 3952 l0 -31 55 -20 c31 -12 72 -21 91 -21 l35 0 -3 18 -3 17 -31 3 -31 3 -11 25 -12 24 -29 0 c-16 0 -36 3 -45 6 l-16 6 0 -30z"/> <path d="M175 3871 c-6 -5 -19 -11 -30 -13 l-20 -5 27 -11 c14 -6 29 -16 33 -22 4 -6 19 -10 33 -9 15 2 33 -1 41 -5 l14 -9 14 19 c7 10 12 23 10 29 -9 27 -100 47 -122 26z"/> <path d="M8949 3728 c-37 -50 -69 -120 -69 -152 l0 -28 28 7 c15 3 42 9 60 12 l32 5 0 94 0 94 -13 0 c-7 0 -24 -15 -38 -32z"/> <path d="M2420 3715 c-11 -30 -6 -45 16 -45 8 0 23 -6 34 -12 l20 -13 24 30 c28 35 25 48 -9 39 l-23 -6 -26 17 -26 17 -10 -27z"/> <path d="M0 3635 c0 -14 5 -25 10 -25 6 0 10 -9 10 -20 0 -11 -4 -20 -10 -20 -5 0 -10 -13 -10 -30 l0 -30 53 3 52 4 4 18 3 18 -16 9 c-9 5 -16 15 -16 22 0 13 -61 76 -73 76 -4 0 -7 -11 -7 -25z"/> <path d="M1980 3630 c0 -11 6 -20 13 -20 8 0 30 -16 50 -37 42 -42 57 -39 31 6 l-18 31 -18 0 c-9 0 -22 9 -28 20 -6 11 -15 20 -20 20 -6 0 -10 -9 -10 -20z"/> <path d="M2620 3611 l-25 -7 -3 -22 -4 -23 49 3 48 3 0 25 0 25 -20 2 c-11 1 -31 -2 -45 -6z"/> <path d="M8691 3406 c-6 -24 -11 -63 -11 -85 0 -23 -4 -41 -9 -41 -14 0 -22 -29 -15 -56 3 -13 11 -24 17 -24 14 0 77 -71 77 -86 0 -6 9 -19 20 -29 11 -10 20 -29 20 -42 l0 -23 28 -1 c52 -3 107 3 117 12 l9 9 -21 21 -20 21 -44 2 -44 2 -4 20 c-2 10 -8 25 -14 33 -7 7 -13 30 -14 50 l-2 36 -31 25 -30 25 0 75 c0 41 -4 81 -9 88 l-8 14 -12 -46z"/> <path d="M140 3432 c0 -25 72 -43 85 -21 10 15 2 20 -44 26 l-41 6 0 -11z"/> <path d="M666 3297 l-17 -13 18 -16 c10 -9 34 -18 53 -21 60 -9 135 -29 144 -38 6 -5 21 -9 35 -9 l26 0 52 -36 c54 -37 73 -38 73 -3 l0 20 -34 14 c-19 8 -37 19 -41 25 -3 5 -19 10 -34 10 -16 0 -34 6 -40 14 -7 8 -31 18 -53 21 -23 4 -55 13 -72 20 -17 7 -45 15 -62 18 l-32 6 -16 -12z"/> <path d="M466 3204 l-6 -16 -28 7 c-28 7 -103 7 -110 0 -2 -2 6 -18 18 -34 l21 -31 33 0 c17 0 38 6 44 12 l12 12 20 -12 20 -12 14 23 c8 12 16 31 18 42 l3 20 -26 3 -26 3 -7 -17z"/> <path d="M6976 3023 l-19 -26 29 6 c16 3 42 10 57 16 l28 11 -6 10 c-3 5 -21 10 -38 10 l-32 -1 -19 -26z"/> <path d="M8047 3043 c-4 -3 0 -14 9 -24 l16 -18 -21 -13 c-26 -16 -26 -24 0 -38 l20 -11 29 10 30 10 5 -8 c3 -5 16 -12 29 -15 30 -8 76 -48 76 -67 0 -8 9 -20 20 -27 11 -7 20 -17 20 -22 0 -6 -9 -10 -20 -10 -11 0 -20 -4 -20 -9 0 -10 -65 -51 -81 -51 -14 0 -11 18 8 40 10 11 28 20 40 20 l23 0 0 14 c0 8 -8 17 -17 20 l-16 7 -37 -36 c-20 -19 -44 -35 -53 -35 -9 0 -17 -4 -17 -10 0 -5 -6 -10 -14 -10 -16 0 -76 -50 -76 -63 0 -17 46 5 72 35 l26 30 21 -7 c28 -9 26 -20 -5 -42 -14 -10 -41 -30 -59 -45 -18 -16 -37 -28 -41 -28 -5 0 -26 -16 -47 -35 -21 -19 -43 -35 -48 -35 -5 0 -20 -11 -33 -25 -12 -13 -35 -29 -50 -35 l-27 -10 6 -20 6 -19 -41 -45 -41 -44 10 -6 c12 -8 82 20 96 38 11 14 36 28 144 80 41 20 80 36 88 36 7 0 21 4 31 9 45 22 94 41 110 41 10 0 27 7 38 15 10 8 36 15 56 15 20 0 38 4 40 8 9 23 188 65 188 44 0 -9 -130 -52 -158 -52 -12 0 -24 -4 -27 -10 -3 -5 -24 -14 -45 -20 l-40 -11 0 -13 0 -13 54 3 c29 1 111 16 182 32 140 32 292 62 318 62 l16 0 0 -24 0 -24 27 -7 c15 -3 43 -20 64 -36 20 -16 44 -29 53 -29 l16 0 0 43 0 42 -49 24 c-27 13 -53 21 -59 17 -6 -3 -13 -2 -17 4 l-6 10 23 0 c13 0 30 5 38 10 l15 10 -24 20 c-26 22 -41 24 -90 10 l-33 -9 -27 13 c-24 12 -87 24 -171 31 -19 2 -53 6 -75 10 l-40 6 -70 -26 c-38 -15 -80 -29 -92 -32 -12 -3 -28 -11 -34 -19 -6 -8 -27 -14 -45 -14 l-34 0 -12 -20 c-7 -11 -20 -20 -29 -20 -16 0 -66 -20 -99 -39 -42 -25 -119 -61 -129 -61 l-11 0 12 20 c7 11 22 23 33 26 11 4 36 19 55 33 19 15 53 35 75 45 22 11 48 23 59 28 10 6 36 16 57 24 65 22 159 68 159 76 0 4 6 8 13 8 8 0 24 11 36 24 13 14 36 30 52 36 58 24 32 49 -55 52 l-48 2 -9 -17 c-21 -37 -70 -8 -184 109 -41 44 -120 76 -138 57z"/> <path d="M2887 2813 l-18 -5 6 -29 6 -29 -25 -23 c-31 -28 -32 -37 -8 -37 9 0 28 16 41 35 13 19 29 35 36 35 7 0 19 7 26 16 l13 16 -19 14 c-19 14 -26 15 -58 7z"/> <path d="M13 2704 c-7 -3 -13 -12 -13 -19 l0 -13 88 -7 c48 -3 108 -13 134 -21 26 -8 56 -14 67 -14 11 0 23 -4 26 -10 3 -5 15 -10 26 -10 l19 0 0 15 0 16 -46 19 c-71 31 -267 59 -301 44z"/> <path d="M5407 2693 c-13 -12 -7 -22 16 -28 12 -4 31 -16 43 -26 38 -35 179 -61 214 -39 l14 9 -14 5 c-8 2 -58 15 -110 27 -52 13 -106 32 -119 41 -26 20 -34 22 -44 11z"/> <path d="M2088 2194 c-16 -8 -28 -19 -28 -25 l0 -10 23 7 c12 4 37 10 56 13 19 3 36 12 39 19 l4 12 -34 0 c-18 -1 -45 -8 -60 -16z"/> <path d="M8020 2133 c-30 -3 -58 -9 -62 -16 l-7 -11 -59 -2 c-56 -2 -195 -37 -218 -55 -6 -5 -34 -14 -63 -20 -57 -12 -176 -62 -186 -79 -3 -5 -18 -10 -33 -10 -15 0 -61 -18 -102 -40 -41 -21 -93 -48 -116 -59 -22 -11 -47 -27 -54 -36 -7 -8 -19 -15 -26 -15 -20 0 -17 -27 4 -39 l17 -10 -17 -1 c-9 0 -28 -5 -42 -11 l-25 -12 10 -18 c13 -24 37 -24 69 1 14 11 32 20 40 20 8 0 39 10 70 21 30 12 73 28 95 36 22 9 49 19 60 24 19 8 86 21 192 39 28 4 58 12 65 16 31 20 142 27 394 28 l271 1 17 -14 c28 -24 152 -40 226 -29 l25 3 0 15 0 15 -35 6 c-46 7 -94 33 -117 63 l-19 24 -54 7 -55 8 35 10 c19 5 45 13 57 17 l21 9 -5 20 c-3 11 -13 23 -23 26 l-18 6 5 20 6 21 -19 -4 -19 -3 0 -34 0 -33 -35 -13 c-118 -44 -161 -55 -240 -61 -41 -3 -107 -14 -148 -25 l-74 -21 -42 11 -41 10 -40 -10 c-22 -6 -65 -14 -97 -19 -31 -4 -62 -11 -68 -15 -11 -7 -94 -25 -188 -42 -18 -3 -35 -9 -38 -14 -3 -5 -15 -9 -27 -9 l-22 1 20 11 c11 7 26 18 33 25 7 7 20 13 27 13 7 0 20 6 27 13 7 6 40 20 73 31 33 10 92 30 130 43 39 14 93 29 121 33 28 4 60 12 70 17 11 5 64 18 119 27 55 10 114 22 131 27 17 5 38 7 46 4 l15 -6 24 21 24 20 -19 15 c-11 8 -22 14 -25 13 -3 -1 -31 -3 -61 -5z m170 -181 c0 -5 -9 -17 -19 -26 l-19 -17 -43 3 c-59 4 -56 22 4 26 26 2 47 7 47 13 0 5 7 9 15 9 8 0 15 -4 15 -8z"/> <path d="M8161 2121 l-14 -9 6 -16 c8 -20 41 -21 57 -1 23 27 -15 47 -49 26z"/> <path d="M8490 2104 l-10 -26 -40 6 c-22 3 -40 3 -40 -1 1 -9 67 -53 81 -53 13 0 78 73 79 88 l0 12 -30 0 -30 0 -10 -26z"/> <path d="M640 1931 c0 -9 -74 -51 -90 -51 -20 0 -140 -60 -140 -70 0 -5 -9 -10 -20 -10 -11 0 -28 -9 -37 -20 -10 -11 -25 -20 -35 -20 -9 0 -20 -5 -23 -10 -9 -14 -73 -40 -98 -40 -11 0 -29 -7 -39 -17 -10 -9 -35 -19 -55 -22 l-38 -6 -3 -19 -4 -18 53 7 c51 7 107 30 159 66 14 9 52 25 85 34 69 20 203 87 245 121 15 13 37 24 48 24 20 0 56 43 45 54 -10 9 -53 7 -53 -3z"/> <path d="M6380 1803 c0 -23 35 -94 52 -104 15 -9 18 -68 6 -86 l-9 -11 12 -8 13 -8 4 12 c2 7 12 12 22 12 10 0 21 7 24 16 3 8 10 12 16 9 15 -9 12 -25 -5 -25 -8 0 -15 -7 -15 -15 0 -8 6 -15 14 -15 8 0 16 7 20 15 3 8 15 15 26 15 l20 0 0 -14 c0 -8 9 -18 20 -21 l21 -7 -7 -33 -6 -34 23 -47 c13 -25 31 -49 39 -51 34 -10 140 -67 140 -75 0 -5 -19 -18 -42 -28 l-43 -18 -120 -12 -120 -13 -8 -13 -8 -14 -45 0 -45 0 6 10 c3 6 19 10 35 10 16 0 31 4 34 8 7 12 -61 43 -79 36 l-16 -6 -19 22 c-11 13 -20 26 -20 30 0 8 65 60 75 60 3 0 21 16 40 35 l35 34 0 31 0 30 25 -6 25 -6 0 11 c0 6 -6 11 -14 11 -8 0 -17 6 -19 13 l-5 12 -1 -12 c-1 -18 -50 -40 -106 -48 -28 -4 -62 -15 -77 -26 -15 -10 -32 -19 -37 -19 -6 0 -17 -13 -26 -30 -9 -16 -20 -30 -25 -30 -15 0 -42 -47 -43 -77 -2 -33 -27 -73 -44 -73 -18 0 -16 27 2 34 8 3 15 10 15 16 0 14 -26 13 -50 -2 -10 -7 -23 -9 -27 -4 -4 4 0 12 10 17 26 15 21 39 -10 50 -16 5 -39 25 -52 44 -26 38 -36 43 -45 20 -7 -20 2 -42 20 -49 8 -3 14 -12 14 -20 0 -15 15 -45 45 -91 29 -45 30 -45 89 -110 29 -33 63 -71 73 -84 l20 -25 34 16 34 16 96 7 97 7 98 -12 c126 -15 238 -44 439 -113 143 -49 191 -73 275 -138 20 -15 62 -37 94 -48 33 -11 66 -27 76 -36 9 -8 21 -15 27 -15 6 0 26 -11 46 -24 l35 -24 84 -10 c46 -5 119 -6 163 -3 l80 6 65 29 c36 16 74 37 85 46 l20 17 63 2 63 2 25 -20 c26 -21 54 -18 54 4 0 7 7 18 15 25 l14 12 31 -7 30 -7 0 -26 c0 -15 9 -38 19 -51 l18 -23 21 13 21 13 25 -12 c31 -14 52 -7 59 19 l5 19 35 0 c20 0 39 -5 42 -10 3 -6 20 -10 36 -10 62 0 262 -117 306 -180 8 -11 21 -20 29 -20 l14 0 0 140 0 140 -13 0 c-8 0 -24 9 -37 20 -13 11 -30 20 -39 20 -9 0 -27 7 -39 16 -12 8 -26 12 -32 9 -5 -3 -19 -1 -30 5 l-21 11 -16 -13 -16 -13 -4 12 c-2 6 -24 21 -48 33 l-44 21 -48 0 c-26 0 -86 1 -133 1 -112 1 -112 1 -205 -11 l-80 -11 -12 -17 c-25 -37 -35 -43 -64 -43 l-30 0 -5 -15 -6 -15 -27 0 c-14 0 -44 -7 -66 -15 l-40 -14 -103 -1 -103 0 -31 22 c-52 39 -128 117 -128 133 0 19 -94 200 -126 242 -13 17 -24 36 -24 40 0 19 -83 92 -111 98 -16 4 -32 12 -36 18 -5 7 -25 25 -46 41 l-38 28 -27 -5 -27 -5 -70 51 c-38 29 -78 57 -90 64 -40 23 -224 113 -231 113 -12 0 -128 83 -163 116 -44 42 -116 80 -168 89 l-43 7 0 -19z m-169 -555 c20 -25 24 -53 9 -63 l-10 -6 -10 25 -9 26 -18 -7 c-10 -3 -24 -10 -30 -16 l-13 -9 0 8 c0 12 43 64 53 64 5 0 17 -10 28 -22z"/> <path d="M1789 1704 c-16 -18 -29 -63 -50 -169 -5 -27 -17 -67 -26 -88 -13 -30 -13 -63 0 -46 19 24 66 145 71 183 3 27 11 55 17 62 6 7 9 27 7 45 l-3 31 -16 -18z"/> <path d="M747 1642 c-16 -10 -45 -32 -65 -49 -20 -18 -41 -33 -46 -33 -6 0 -58 -23 -114 -50 -57 -28 -108 -50 -113 -50 -5 0 -21 -13 -36 -30 -14 -16 -34 -30 -44 -30 -10 0 -25 -7 -34 -16 -8 -9 -38 -22 -65 -29 -87 -23 -137 -78 -83 -91 l26 -7 18 12 c10 6 29 11 43 11 13 0 29 7 36 15 7 8 18 15 25 15 6 0 20 9 30 20 l18 20 27 0 27 0 17 19 c10 11 30 23 45 26 53 11 278 173 307 220 32 52 30 56 -19 27z"/> <path d="M1653 1333 c-10 -16 -23 -32 -30 -36 -7 -4 -13 -12 -13 -17 0 -5 -26 -44 -57 -87 -63 -85 -93 -137 -93 -159 0 -8 -7 -17 -15 -20 -8 -3 -17 -14 -20 -25 -4 -10 -13 -19 -21 -19 -8 0 -14 -7 -14 -15 0 -8 -17 -26 -37 -40 l-38 -25 -4 11 c-3 11 40 54 74 75 l19 10 -8 13 -8 12 -16 -14 c-10 -8 -26 -17 -37 -21 -11 -3 -28 -23 -38 -43 l-18 -36 13 -8 13 -8 -23 -22 c-25 -23 -43 -19 -23 5 l12 14 -12 7 -11 7 -26 -25 -25 -26 14 -17 13 -16 -26 -22 c-15 -11 -30 -33 -33 -48 -4 -16 -13 -28 -21 -28 -7 0 -16 -11 -20 -24 l-6 -25 -31 -3 c-37 -4 -46 -23 -18 -38 l21 -11 17 21 c10 11 23 20 30 20 13 0 70 49 122 103 14 15 44 44 66 65 168 158 305 321 305 363 0 20 28 83 54 121 18 27 16 58 -3 58 -6 0 -18 -12 -28 -27z"/> <path d="M1027 1313 c-3 -4 -7 -25 -8 -46 l-4 -38 14 -8 c17 -11 5 -31 -19 -31 -10 0 -20 -7 -24 -15 -7 -19 -26 -20 -26 -1 0 8 -5 18 -12 22 l-11 7 -19 -23 c-23 -28 -23 -59 -1 -75 l17 -13 -13 -16 -13 -16 6 -24 6 -23 30 -13 c16 -7 32 -21 35 -31 7 -21 13 -23 35 -9 l15 10 -15 10 c-8 5 -21 10 -27 10 -7 0 -13 6 -13 14 0 7 -7 19 -15 26 -29 24 8 98 49 100 12 0 56 49 56 62 0 6 7 19 16 29 l16 18 -9 38 -9 38 -26 3 c-14 2 -28 0 -31 -5z"/> <path d="M7595 1270 c-22 -3 -51 -12 -64 -19 l-23 -13 8 -8 c5 -4 90 -10 189 -13 99 -3 207 -10 240 -16 104 -18 198 -33 260 -40 34 -5 70 -13 82 -19 26 -14 70 -16 78 -2 14 23 -91 63 -215 81 -36 6 -96 19 -135 30 l-70 19 -155 3 c-85 1 -173 0 -195 -3z"/> <path d="M1086 945 c-15 -14 -31 -25 -37 -25 -5 0 -28 -9 -49 -20 l-40 -20 0 15 c0 15 -48 45 -73 45 -13 0 -67 -73 -67 -90 0 -5 8 -13 17 -19 l18 -9 -19 -21 c-36 -40 7 -55 59 -21 17 11 39 20 50 20 l20 0 60 58 c34 31 72 64 85 74 l25 16 -11 11 -11 12 -27 -26z"/> <path d="M5158 735 c-11 -11 4 -44 23 -50 10 -3 20 -14 23 -23 7 -21 111 -132 124 -132 5 0 17 -9 27 -20 l18 -19 16 9 c31 16 81 73 81 92 0 10 7 34 15 54 l14 35 -14 6 c-18 6 -42 -12 -66 -51 l-17 -29 -12 42 -11 42 -17 -3 c-9 -2 -23 -16 -30 -31 l-14 -28 -16 13 c-24 19 -60 38 -72 38 -6 0 -23 14 -38 31 -15 17 -30 28 -34 24z"/> <path d="M6367 556 l-28 -10 6 -26 c4 -14 9 -42 12 -62 l5 -38 9 6 10 6 -6 32 -6 32 20 25 c11 14 16 30 13 35 l-7 10 -28 -10z"/> <path d="M5468 347 l-17 -13 10 -15 c5 -8 9 -24 9 -36 0 -12 8 -30 19 -40 10 -10 26 -36 35 -58 10 -22 24 -53 31 -70 8 -16 19 -49 26 -72 l12 -43 28 0 28 0 -10 32 c-5 18 -9 52 -9 75 l0 42 -35 64 c-19 34 -48 76 -65 92 -16 16 -30 35 -30 42 0 16 -10 16 -32 0z"/> <path d="M8734 265 c-8 -13 -13 -29 -9 -35 8 -14 -23 -63 -35 -55 -17 11 -22 -17 -6 -34 l17 -18 -27 -32 -26 -31 6 -15 c14 -39 94 13 131 85 l16 30 -11 20 c-6 11 -8 31 -4 44 14 58 -22 87 -52 41z"/> <path d="M2327 212 c-8 -11 18 -104 26 -96 9 9 9 67 1 88 -7 17 -20 21 -27 8z"/> <path d="M7817 174 c-7 -14 -31 -35 -53 -48 l-39 -22 -3 -28 -4 -28 -18 -5 c-10 -3 -20 -13 -23 -24 -6 -23 6 -25 23 -4 l13 16 17 -16 c26 -24 30 -19 30 46 l0 61 13 -4 c6 -3 13 -15 15 -27 4 -24 28 -39 42 -25 5 5 12 37 16 72 l7 62 -11 0 c-6 0 -17 -12 -25 -26z"/> <path d="M924 88 l-7 -11 16 -12 c10 -7 17 -24 17 -39 l0 -26 15 0 15 0 0 19 c0 55 -37 101 -56 69z"/> <path d="M846 34 c-25 -25 -19 -34 24 -34 l40 0 0 13 c0 34 -39 47 -64 21z"/> </g> </svg>